Coordinates
version=1
nRows=20
nColumns=38
inDegrees=no

Units are S.I. units (second, meters, Newtons, ...)
If the header above contains a line with 'inDegrees', this indicates whether rotational values are in degrees (yes) or radians (no).

endheader
time	pelvis_tilt	pelvis_list	pelvis_rotation	pelvis_tx	pelvis_ty	pelvis_tz	hip_flexion_r	hip_adduction_r	hip_rotation_r	knee_angle_r	ankle_angle_r	subtalar_angle_r	mtp_angle_r	hip_flexion_l	hip_adduction_l	hip_rotation_l	knee_angle_l	ankle_angle_l	subtalar_angle_l	mtp_angle_l	lumbar_extension	lumbar_bending	lumbar_rotation	arm_flex_r	arm_add_r	arm_rot_r	elbow_flex_r	pro_sup_r	wrist_flex_r	wrist_dev_r	arm_flex_l	arm_add_l	arm_rot_l	elbow_flex_l	pro_sup_l	wrist_flex_l	wrist_dev_l
0.64	0.567741	1.52428	-2.0359	0.969498	1.04587	0.914227	0.414381	-0.118074	-0.240994	0.0995707	0.130983	0	0	-0.319481	0.0381938	-0.128537	0.0734855	0.291045	0	0	-0.182768	-0.0237087	-0.260285	-0.218715	-0.208579	0.0664357	0.835531	0.54829	0	0	0.0407711	-0.455999	0.121977	0.756153	1.32922	0	0
0.65	0.554151	1.52495	-2.01943	0.969339	1.03485	0.912817	0.413653	-0.116756	-0.247138	0.108254	0.132114	0	0	-0.324293	0.0329136	-0.134936	0.0900845	0.301119	0	0	-0.183501	-0.0197528	-0.262881	-0.220293	-0.210301	0.0647209	0.839644	0.546615	0	0	0.0430111	-0.452374	0.124647	0.752597	1.33392	0	0
0.66	0.536276	1.52536	-1.99817	0.969221	1.0236	0.911534	0.414288	-0.11666	-0.255583	0.127815	0.131256	0	0	-0.329438	0.0271584	-0.140296	0.106994	0.309657	0	0	-0.18433	-0.0154324	-0.265947	-0.22262	-0.212385	0.0622244	0.843731	0.545228	0	0	0.0439708	-0.448112	0.126523	0.74944	1.33903	0	0
0.67	0.525345	1.52565	-1.98315	0.969107	1.0121	0.910335	0.415306	-0.117703	-0.264257	0.154167	0.129268	0	0	-0.334429	0.021144	-0.144668	0.124389	0.316504	0	0	-0.184811	-0.0112706	-0.269729	-0.225783	-0.214597	0.0595968	0.84809	0.544374	0	0	0.043342	-0.443427	0.127348	0.746845	1.34414	0	0
0.68	0.525458	1.52591	-1.97847	0.968947	1.00029	0.909196	0.415613	-0.119392	-0.272437	0.182387	0.129706	0	0	-0.338971	0.0148609	-0.148796	0.142638	0.321835	0	0	-0.184456	-0.00765695	-0.274381	-0.229526	-0.216445	0.056601	0.852198	0.543774	0	0	0.040647	-0.438629	0.127344	0.745096	1.34941	0	0
0.69	0.528624	1.5263	-1.97635	0.968708	0.988248	0.908173	0.414488	-0.120656	-0.278745	0.208225	0.132458	0	0	-0.342658	0.00783214	-0.152995	0.162495	0.325674	0	0	-0.1835	-0.00421591	-0.279761	-0.23339	-0.217948	0.0535344	0.855864	0.542895	0	0	0.0362144	-0.433624	0.126459	0.743814	1.35464	0	0
0.7	0.523492	1.52723	-1.96601	0.968318	0.976058	0.907315	0.412007	-0.12003	-0.282336	0.227728	0.130505	0	0	-0.34482	-0.000582087	-0.158138	0.18462	0.328079	0	0	-0.181967	-0.000297536	-0.285283	-0.237061	-0.21938	0.0507532	0.858882	0.541381	0	0	0.0302899	-0.428178	0.124354	0.742711	1.35965	0	0
0.71	0.498893	1.52919	-1.93712	0.967665	0.963773	0.906643	0.408547	-0.116345	-0.282595	0.23881	0.115799	0	0	-0.344742	-0.0107609	-0.164657	0.209637	0.329259	0	0	-0.17978	0.0045775	-0.289627	-0.240464	-0.220918	0.0489309	0.860528	0.540188	0	0	0.0238304	-0.422095	0.121573	0.741013	1.36452	0	0
0.72	0.443555	1.53205	-1.87862	0.9667	0.951418	0.906204	0.404111	-0.109904	-0.281034	0.242951	0.0885695	0	0	-0.342125	-0.0230213	-0.172871	0.238409	0.329039	0	0	-0.177168	0.0105953	-0.29257	-0.243356	-0.222449	0.0480728	0.860421	0.53947	0	0	0.016951	-0.41534	0.117942	0.738501	1.36899	0	0
0.73	0.337484	1.53516	-1.76975	0.965491	0.93898	0.906054	0.398858	-0.101832	-0.281289	0.246635	0.0606094	0	0	-0.336947	-0.0379325	-0.182081	0.271897	0.327395	0	0	-0.174594	0.0179911	-0.294717	-0.245676	-0.223675	0.0477814	0.858683	0.538557	0	0	0.0095185	-0.408309	0.113834	0.735409	1.37316	0	0
0.74	0.180169	1.53751	-1.61003	0.964132	0.926407	0.906194	0.394156	-0.0937564	-0.283998	0.256367	0.0410247	0	0	-0.329716	-0.0547072	-0.191271	0.309918	0.323112	0	0	-0.172311	0.0263986	-0.296155	-0.247565	-0.224978	0.0481164	0.855371	0.537507	0	0	0.00167729	-0.400959	0.109756	0.730991	1.37777	0	0
0.75	-0.00782175	1.53791	-1.41984	0.962767	0.913658	0.906676	0.390389	-0.0867108	-0.287722	0.273954	0.0307561	0	0	-0.321111	-0.0725684	-0.199419	0.352087	0.313116	0	0	-0.170787	0.0354279	-0.296713	-0.250123	-0.22692	0.049215	0.852172	0.536141	0	0	-0.00576105	-0.392753	0.106057	0.725043	1.38274	0	0
0.76	-0.185484	1.53638	-1.24019	0.961471	0.900793	0.907489	0.387458	-0.0807453	-0.29075	0.297668	0.0282191	0	0	-0.310257	-0.0905648	-0.205447	0.398788	0.297039	0	0	-0.16989	0.0445576	-0.296896	-0.252983	-0.229603	0.0513589	0.849007	0.533376	0	0	-0.0133096	-0.383822	0.102049	0.720008	1.38608	0	0
0.77	-0.342332	1.53483	-1.08345	0.960084	0.888014	0.908435	0.3864	-0.074901	-0.290746	0.323398	0.0298635	0	0	-0.294608	-0.107513	-0.210108	0.4507	0.273948	0	0	-0.168454	0.0531123	-0.294985	-0.255368	-0.232978	0.0550101	0.845164	0.528586	0	0	-0.0209366	-0.374414	0.0984841	0.714794	1.38796	0	0
0.78	-0.535546	1.5337	-0.892271	0.958372	0.875292	0.909342	0.386269	-0.0667201	-0.289659	0.34571	0.0327068	0	0	-0.272314	-0.12531	-0.212801	0.508074	0.242962	0	0	-0.164527	0.0619818	-0.291156	-0.258115	-0.236843	0.0598664	0.841519	0.521685	0	0	-0.0291394	-0.365049	0.0958762	0.708949	1.38915	0	0
0.79	-0.812536	1.53348	-0.619049	0.956326	0.862731	0.909871	0.388739	-0.0562571	-0.289259	0.362606	0.0362504	0	0	-0.240125	-0.144464	-0.213696	0.572725	0.203881	0	0	-0.15561	0.0711022	-0.285366	-0.262107	-0.241583	0.0666489	0.83901	0.509192	0	0	-0.0375679	-0.355589	0.0944773	0.702167	1.39015	0	0
0.8	-1.10017	1.53137	-0.336351	0.954117	0.850246	0.910263	0.389369	-0.0444232	-0.289274	0.372004	0.0396009	0	0	-0.203866	-0.162361	-0.209455	0.638529	0.157365	0	0	-0.144859	0.0795521	-0.278627	-0.266721	-0.246896	0.0753207	0.837382	0.489431	0	0	-0.0466732	-0.346653	0.0945456	0.696077	1.38994	0	0
0.81	-1.34578	1.52648	-0.095894	0.951766	0.837803	0.910582	0.38634	-0.0307216	-0.288656	0.373343	0.0432431	0	0	-0.165474	-0.17959	-0.201392	0.704428	0.104425	0	0	-0.13406	0.0879577	-0.273079	-0.271078	-0.252205	0.0843489	0.836503	0.472788	0	0	-0.0580529	-0.338856	0.0947731	0.692558	1.38818	0	0
0.82	-1.5271	1.51978	0.0798862	0.949308	0.825414	0.910845	0.38042	-0.0157972	-0.286265	0.369622	0.0483719	0	0	-0.12654	-0.196107	-0.19189	0.769018	0.0472035	0	0	-0.123206	0.0956237	-0.266067	-0.276933	-0.256712	0.090566	0.836602	0.460387	0	0	-0.0682928	-0.331788	0.0973981	0.688595	1.38683	0	0
0.83	-1.64309	1.51308	0.189099	0.946894	0.813212	0.911188	0.372829	-0.00137898	-0.281553	0.365508	0.0560094	0	0	-0.0886075	-0.210157	-0.181674	0.831527	-0.0108483	0	0	-0.113913	0.102081	-0.256303	-0.283967	-0.260967	0.0940996	0.838058	0.449484	0	0	-0.0765973	-0.325154	0.102192	0.686156	1.38384	0	0
